<svg id="visual" viewBox="0 0 900 600" width="900" height="600" xmlns="http://www.w3.org/2000/svg" xmlns:xlink="http://www.w3.org/1999/xlink" version="1.1"><rect x="0" y="0" width="900" height="600" fill="#ffffff"></rect><g transform="translate(437.56952685781687 301.8014812104289)"><path d="M114.6 -118C162.1 -123.1 223.7 -107.9 225 -79C226.4 -50.1 167.4 -7.4 148.6 47.7C129.9 102.8 151.3 170.3 133.3 170.7C115.2 171.1 57.6 104.3 12.8 86.6C-31.9 69 -63.9 100.4 -101 106.2C-138.1 112 -180.3 92.2 -194.3 60.5C-208.3 28.7 -194 -14.8 -184.9 -65.4C-175.9 -116.1 -172 -173.7 -142 -174.3C-112.1 -174.9 -56 -118.5 -11.3 -103C33.5 -87.4 67 -112.9 114.6 -118" fill="#BB004B"></path></g></svg>