<svg id="visual" viewBox="0 0 900 600" width="900" height="600" xmlns="http://www.w3.org/2000/svg" xmlns:xlink="http://www.w3.org/1999/xlink" version="1.1"><path d="M0 243L21.5 258.2C43 273.3 86 303.7 128.8 334.3C171.7 365 214.3 396 257.2 390.2C300 384.3 343 341.7 385.8 340.2C428.7 338.7 471.3 378.3 514.2 386.3C557 394.3 600 370.7 642.8 374.7C685.7 378.7 728.3 410.3 771.2 414C814 417.7 857 393.3 878.5 381.2L900 369L900 601L878.5 601C857 601 814 601 771.2 601C728.3 601 685.7 601 642.8 601C600 601 557 601 514.2 601C471.3 601 428.7 601 385.8 601C343 601 300 601 257.2 601C214.3 601 171.7 601 128.8 601C86 601 43 601 21.5 601L0 601Z" fill="#0066FF" stroke-linecap="round" stroke-linejoin="miter"></path></svg>